<?xml version="1.0" standalone="no"?>
<!DOCTYPE svg PUBLIC "-//W3C//DTD SVG 20010904//EN"
 "http://www.w3.org/TR/2001/REC-SVG-20010904/DTD/svg10.dtd">
<svg version="1.0" xmlns="http://www.w3.org/2000/svg"
 width="112.000000pt" height="112.000000pt" viewBox="0 0 112.000000 112.000000"
 preserveAspectRatio="xMidYMid meet">
<metadata>
Created by potrace 1.14, written by Peter Selinger 2001-2017
</metadata>
<g transform="translate(0.000000,112.000000) scale(0.100000,-0.100000)"
fill="#000000" stroke="none">
<path d="M400 1015 c-30 -12 -56 -28 -58 -34 -2 -6 -8 -9 -13 -5 -5 3 -8 2 -7
-3 6 -21 -15 -53 -35 -54 -16 0 -18 -2 -7 -7 8 -4 16 -15 16 -24 1 -10 -2 -16
-6 -13 -5 3 -11 -7 -14 -22 -16 -75 -17 -74 18 -88 41 -17 58 -38 50 -59 -4
-11 -1 -16 13 -16 21 0 44 -24 67 -69 15 -29 15 -32 -14 -75 -17 -24 -39 -79
-49 -121 -11 -42 -22 -80 -26 -83 -3 -3 -13 2 -23 11 -14 14 -14 21 -4 37 18
29 4 78 -42 140 -22 30 -42 57 -43 59 -2 2 -6 2 -9 -1 -3 -4 2 -18 11 -32 12
-18 13 -26 5 -26 -7 0 -10 -7 -6 -15 3 -8 -2 -21 -10 -30 -18 -18 -32 -95 -17
-95 11 0 32 -87 38 -153 2 -23 6 -62 8 -87 4 -33 -1 -58 -18 -97 l-24 -53 263
0 262 0 11 73 c17 108 24 137 34 137 5 0 9 5 9 11 0 5 -4 7 -10 4 -5 -3 -10
-1 -10 4 0 6 3 11 8 11 12 0 31 52 43 116 23 123 -11 223 -98 294 -36 29 -62
60 -74 88 -23 54 -23 59 -1 65 14 4 13 5 -4 6 -17 1 -22 11 -31 78 -8 54 -17
81 -30 90 -10 7 -26 20 -35 27 -24 21 -55 36 -70 35 -7 0 -38 -11 -68 -24z"/>
<path d="M105 950 c3 -5 11 -10 16 -10 6 0 7 5 4 10 -3 6 -11 10 -16 10 -6 0
-7 -4 -4 -10z"/>
<path d="M188 873 c7 -3 16 -2 19 1 4 3 -2 6 -13 5 -11 0 -14 -3 -6 -6z"/>
<path d="M632 860 c0 -14 2 -19 5 -12 2 6 2 18 0 25 -3 6 -5 1 -5 -13z"/>
<path d="M241 854 c0 -11 3 -14 6 -6 3 7 2 16 -1 19 -3 4 -6 -2 -5 -13z"/>
<path d="M906 645 c4 -8 8 -15 10 -15 2 0 4 7 4 15 0 8 -4 15 -10 15 -5 0 -7
-7 -4 -15z"/>
<path d="M1011 624 c0 -11 3 -14 6 -6 3 7 2 16 -1 19 -3 4 -6 -2 -5 -13z"/>
<path d="M320 575 c0 -19 4 -35 8 -35 5 0 8 16 8 35 -1 46 -16 46 -16 0z"/>
<path d="M1011 584 c0 -11 3 -14 6 -6 3 7 2 16 -1 19 -3 4 -6 -2 -5 -13z"/>
<path d="M907 293 c-4 -3 -7 -20 -6 -37 l1 -31 8 35 c9 36 8 45 -3 33z"/>
<path d="M921 224 c0 -11 3 -14 6 -6 3 7 2 16 -1 19 -3 4 -6 -2 -5 -13z"/>
</g>
</svg>
